<svg xmlns="http://www.w3.org/2000/svg" width="84.464" height="84.464" viewBox="0 0 84.464 84.464" preserveAspectRatio="none">
  <title>mask-s-square</title>
  <g>
    <path d="M84.549,84.712H.085V.248H84.549ZM9.417,1.956v.007c-1.44,0-2.882-.055-4.318.013-2.127.1-3.094.959-3.348,3.021A36.714,36.714,0,0,0,1.54,9.061,47.575,47.575,0,0,1,1.562,14.2a82.068,82.068,0,0,0-.15,13.275c.186,4.628.031,9.269.016,13.9-.006,2.074-.047,4.149-.045,6.223,0,1.8.065,3.591.059,5.387-.011,3.676-.056,7.352-.076,11.027-.015,2.874-.051,5.748-.006,8.62.042,2.713.075,5.432.307,8.132A2.888,2.888,0,0,0,4.7,83.732c2.381.111,4.777-.014,7.163-.117,3.069-.131,6.133-.46,9.2-.482,2.949-.022,5.9.348,8.851.354,5.074.009,10.148-.13,15.223-.208.439-.007.879-.027,1.318-.039,4.585-.13,9.17-.324,13.756-.368,4.189-.039,8.379.1,12.569.134,1.992.018,3.986,0,5.979-.021,2.257-.023,3.442-1.112,3.59-3.458.219-3.467.393-6.939.5-10.411.128-3.993.18-7.989.237-11.984q.146-10.12.252-20.243c.006-.519-.067-1.038-.061-1.557.06-4.907.155-9.815.19-14.723.039-5.425.068-10.852.006-16.277A2.452,2.452,0,0,0,81.3,1.819,54.073,54.073,0,0,0,74.051.991c-4.3-.047-8.56.607-12.9.532-8.464-.146-16.938.256-25.408.352-3.511.039-7.023-.167-10.535-.181-1.714-.007-3.428.229-5.143.249C16.519,1.985,12.968,1.956,9.417,1.956Z" transform="translate(-0.085 -0.248)" fill="#fff"/>
    <path d="M9.417,1.956c3.551,0,7.1.029,10.653-.013,1.715-.02,3.429-.256,5.143-.249,3.512.014,7.024.22,10.535.181,8.47-.1,16.944-.5,25.408-.352,4.335.075,8.6-.579,12.9-.532a54.073,54.073,0,0,1,7.247.828,2.452,2.452,0,0,1,2.177,2.513c.062,5.425.033,10.852-.006,16.277-.035,4.908-.13,9.816-.19,14.723-.006.519.067,1.038.061,1.557q-.117,10.122-.252,20.243c-.057,4-.109,7.991-.237,11.984-.11,3.472-.284,6.944-.5,10.411-.148,2.346-1.333,3.435-3.59,3.458-1.993.02-3.987.039-5.979.021-4.19-.038-8.38-.173-12.569-.134-4.586.044-9.171.238-13.756.368-.439.012-.879.032-1.318.039-5.075.078-10.149.217-15.223.208-2.951-.006-5.9-.376-8.851-.354-3.068.022-6.132.351-9.2.482-2.386.1-4.782.228-7.163.117a2.888,2.888,0,0,1-3.031-2.967c-.232-2.7-.265-5.419-.307-8.132-.045-2.872-.009-5.746.006-8.62.02-3.675.065-7.351.076-11.027.006-1.8-.057-3.591-.059-5.387,0-2.074.039-4.149.045-6.223.015-4.636.17-9.277-.016-13.9A82.068,82.068,0,0,1,1.562,14.2,47.575,47.575,0,0,0,1.54,9.061,36.714,36.714,0,0,1,1.751,5C2.005,2.935,2.972,2.077,5.1,1.976c1.436-.068,2.878-.013,4.318-.013Z" transform="translate(-0.085 -0.248)"/>
  </g>
</svg>
