<svg xmlns="http://www.w3.org/2000/svg" width="332.845" height="652.399" viewBox="0 0 332.845 652.399" preserveAspectRatio="none">
  <title>mask-m-vertical</title>
  <path d="M97.4,649.757a56.162,56.162,0,0,1-7.362-.518,67.6,67.6,0,0,0-7.3-.9c-2.439-.055-4.88-.037-7.32-.073s-4.88-.1-7.32-.121-4.878-.416-7.319-.435-4.881.088-7.321.068c-1.3-.01-3.733.107-6.821.224-2.027.076-4.325.606-6.8.7-2.177.079-4.494-.364-6.829-.3-2.266.063-4.564.05-6.817.08-2.355.032-4.656.3-6.82.273-2.51-.032-4.845.129-6.833-.015-3.419-.249-5.969-.785-6.7-1.514-1.449-1.449-1.874-3.613-2.359-5.882a31.1,31.1,0,0,1-1.122-6.318c-.02-2.112.031-4.305.107-6.436.08-2.238.52-4.416.432-6.41-.1-2.365-.222-4.767-.319-7.19-.1-2.385.006-4.795-.063-7.205s-.393-4.8-.415-7.2c-.023-2.418-.295-4.83-.251-7.209.044-2.433.724-4.815.858-7.175.139-2.428-.267-4.92-.209-7.423.056-2.441.052-4.908.049-7.4,0-2.45.306-4.925.261-7.41-.044-2.458.009-4.933-.059-7.41s-.613-4.923-.691-7.391.386-4.961.314-7.422c-.072-2.482-.654-4.94-.7-7.393-.052-2.491.338-4.968.326-7.412-.012-2.5-.393-4.974-.347-7.407.045-2.357.481-4.708.509-7.064s.061-4.715.076-7.072-.077-4.715-.076-7.071.16-4.715.151-7.071-.385-4.712-.4-7.068.138-4.716.112-7.072-.361-4.709-.393-7.065-.214-4.711-.25-7.067.326-4.719.287-7.075-.079-4.713-.118-7.069.13-4.716.091-7.072-.5-4.7-.538-7.061S.979,430,.947,427.64.929,422.927.9,420.571.718,415.859.7,413.5s.442-4.715.433-7.072S.94,401.72.941,399.363s-.028-4.712-.014-7.069c.015-2.423-.134-4.847-.12-7.269s-.054-4.846-.04-7.268.076-4.846.09-7.268.107-4.845.121-7.267.222-4.844.235-7.266-.127-4.848-.114-7.271-.075-4.847-.063-7.269.276-4.846.288-7.268.235-4.845.246-7.267-.377-4.848-.367-7.27.2-4.844.209-7.266.017-4.845.027-7.267.019-4.845.028-7.266-.032-4.845-.024-7.266-.259-4.845-.251-7.266-.011-4.844,0-7.266,0-4.843.009-7.264.257-4.843.262-7.264.246-4.843.25-7.265-.308-4.843-.3-7.265-.072-4.842-.07-7.264.438-4.842.439-7.263-.443-4.842-.442-7.264-.072-4.842-.073-7.263.4-4.842.4-7.263-.412-4.841-.415-7.262.607-4.843.6-7.264-.3-4.842-.3-7.263.253-4.843.247-7.264-.5-4.839-.5-7.26-.132-4.841-.141-7.262-.012-4.842-.022-7.263.482-4.845.47-7.266-.273-4.841-.286-7.262.1-4.844.085-7.266.162-4.846.147-7.269c-.017-2.509-.341-5.014-.31-7.518S1.107,118.2,1.17,115.7s.33-5.008.408-7.511.352-5,.43-7.508.037-5.015.1-7.519.219-5.01.246-7.515.184-5.015.161-7.521-.081-5.016-.172-7.522-.272-5.008-.446-7.511c-.157-2.267-.281-4.522-.395-6.775s-.238-4.52-.317-6.78-.246-4.516-.3-6.783S.615,38.239.579,35.967c-.024-1.533.236-4,.126-6.92-.08-2.12-.211-4.476-.247-6.906-.034-2.3-.522-4.66-.451-6.928a64.949,64.949,0,0,1,.751-6.9c.408-2.991,1.226-5.234,2.277-6.371.829-.9,3.089-1.209,5.9-1.42,2-.151,4.218-.543,6.281-.523,2.664.026,5.045.264,6.294.29,2.393.052,4.847.176,7.345.333,2.411.152,4.851.456,7.323.65,2.429.189,4.891.23,7.344.406s4.909.163,7.347.272c2.417.107,4.835.137,7.268.137s4.837-.157,7.268-.233,4.858.164,7.283.041,4.863.006,7.284-.133,4.844-.358,7.262-.484S92.08.955,94.5.872c2.436-.083,4.857-.392,7.271-.4,2.439-.008,4.863.212,7.273.312,2.436.1,4.87.1,7.27.342,2.45.25,4.932.333,7.43.509,2.461.174,4.915.808,7.413.919,2.469.11,4.971-.337,7.466-.278q3.714.087,7.448.119c2.481.018,4.964.046,7.45.032s4.97-.039,7.451-.074,4.977-.164,7.453-.211c2.5-.047,4.993.514,7.462.464,2.5-.05,4.976-.654,7.439-.7,2.695-.047,5.27-.254,7.795-.455,2.666-.212,5.284.055,7.835-.021,2.627-.079,5.249-.477,7.837-.072,2.181.341,4.346,1.1,6.594,1.218,2.209.116,4.457-.149,6.7-.174,2.223-.024,4.459-.05,6.69-.14s4.453-.534,6.668-.619c2.25-.087,4.494.091,6.7.085,2.435-.006,4.866-.172,7.291-.165s4.864-.057,7.29-.042,4.862.481,7.29.5,4.862-.091,7.29-.073,4.858.066,7.286.078,4.858-.253,7.288-.251,4.854.135,7.285.122,4.853-.054,7.286-.086,4.857.172,7.291.116c1.875-.044,4.157-.48,6.6-.665,2.15-.163,4.422-.23,6.621-.253a32.785,32.785,0,0,1,6.637.277,8.164,8.164,0,0,1,5.366,3.542c1.053,1.627.932,4.751.667,8.076-.255,3.191-.6,6.458-.605,8.355,0,2.555.317,5.11.314,7.665s-.3,5.11-.307,7.665.28,5.11.27,7.665c-.01,2.458-.284,4.921-.277,7.391s.242,4.921.261,7.389.082,4.925.106,7.392.086,4.927.109,7.394-.02,4.929,0,7.394-.1,4.931-.1,7.395.138,4.933.125,7.395-.261,4.93-.3,7.391-.077,4.933-.142,7.392.166,4.944.064,7.4-.635,4.91-.779,7.363c-.152,2.577-.1,5.167-.143,7.749s-.13,5.165-.1,7.748.1,5.162.155,7.744.107,5.161.153,7.742,0,5.159-.013,7.74q-.012,3.544-.133,7.146c-.078,2.375.1,4.773,0,7.16s-.144,4.778-.23,7.152c-.088,2.4-.364,4.784-.388,7.145-.025,2.417.368,4.795.457,7.141.088,2.33.1,4.664.164,6.992s-.25,4.668-.208,7,.031,4.659.057,6.99.06,4.658.075,6.988.218,4.657.225,6.988-.214,4.655-.21,6.985-.026,4.657-.019,6.989.127,4.66.139,7-.078,4.661-.055,7c.023,2.43-.038,4.861.01,7.286s.315,4.852.382,7.277.119,4.855.2,7.28.379,4.844.468,7.269.277,4.847.37,7.272.279,4.846.369,7.272.166,4.85.249,7.276-.338,4.866-.268,7.292.222,4.846.274,7.274.468,4.845.5,7.273-.214,4.854-.214,7.283a61,61,0,0,1-.554,8.68c-.58,4.038-1.23,6.6-1.131,8.581.11,2.215.259,4.44.295,6.668s-.183,4.443-.194,6.669.268,4.447.235,6.67-.474,4.438-.5,6.659-.044,4.447-.046,6.665.274,4.444.326,6.66c.055,2.329.112,4.694.043,7.056-.068,2.343-.13,4.7-.252,7.048s-.251,4.709-.361,7.039c-.112,2.375-.337,4.715-.365,7.027-.028,2.4-.432,4.763-.292,7.055.153,2.49.8,4.96.886,7.46s.2,5,.251,7.5-.009,5,.025,7.5.165,4.993.2,7.492-.2,5-.134,7.5.252,4.981.283,7.468.064,4.982.075,7.47-.081,4.978-.078,7.468.16,4.976.167,7.469.047,4.973.07,7.469c.022,2.394-.418,4.78-.5,7.165s-.379,4.762-.5,7.148-.2,4.773-.318,7.162a66.133,66.133,0,0,0,.172,6.744c.13,2.23.716,4.492.765,6.7a33.009,33.009,0,0,1-.5,6.718,86.685,86.685,0,0,0-.934,9.076,32.449,32.449,0,0,0-.134,6.657c.267,2.221,1.116,4.366,1.415,6.537.3,2.207.076,4.536.2,6.865.119,2.25.457,4.535.459,6.843,0,2.277-.251,4.567-.316,6.849-.065,2.3-.321,4.586-.405,6.84-.087,2.332.351,4.639.3,6.861q-.074,3.058-.149,6.116c-.051,2.039-.219,4.075-.27,6.114s-.335,4.071-.385,6.11c-.038,1.58.349,4.216.558,7.136.166,2.337.415,4.861.419,7.155,0,3.018-.425,5.671-1.276,7.01-1.058,1.668-3.1,2.56-5.6,3.193a30.857,30.857,0,0,1-6.532.925c-2.146.07-4.415.313-6.643.189-2.278-.128-4.534-.382-6.617-.574-2.538-.233-4.8-.785-6.578-.882-2.413-.131-4.848.086-7.274-.006s-4.836-.148-7.263-.206-4.834-.49-7.261-.518-4.846.295-7.271.29-4.845-.3-7.27-.287-4.849-.17-7.272-.143-4.843.45-7.265.485-4.848.053-7.269.091-4.855-.14-7.276-.105-4.844.435-7.262.464-4.851-.074-7.268-.058c-2.355.016-4.708.12-7.061.13s-4.708-.126-7.061-.121-4.708.243-7.061.242-4.707-.562-7.06-.568-4.708.257-7.061.246-4.707-.016-7.061-.033-4.7-.321-7.057-.343-4.707.112-7.06.084-4.7-.185-7.058-.218-4.707.05-7.061.011c-2.607-.042-5.084-.073-7.517-.3-2.509-.233-4.971-.528-7.489-.74-2.425-.2-4.9-.475-7.514-.458-2.517.015-4.791.2-6.941.3-2.406.113-4.645.538-6.916.656-2.238.117-4.507-.032-6.944-.013C102.2,649.813,99.921,649.888,97.4,649.757Z"/>
</svg>
