<svg xmlns="http://www.w3.org/2000/svg" width="83.232" height="162.308" viewBox="0 0 83.232 162.308" preserveAspectRatio="none">
  <title>mask-s-vertical</title>
  <path d="M6.183.532C10.243.31,14.31.163,18.373.007c1.389-.053,2.786.2,4.182.255q3.339.129,6.681.174c3.238.039,6.477.038,9.715.054.556,0,1.114.019,1.67,0,7.062-.236,14.136-.9,21.184-.044a42.456,42.456,0,0,0,7.62.076,85.055,85.055,0,0,1,9.94.218A2.845,2.845,0,0,1,82.144,3.9c.035,3.232-.005,6.464.032,9.7.025,2.275.16,4.549.18,6.825.014,1.514-.116,3.03-.134,4.546a75.216,75.216,0,0,0,.014,7.524,89.934,89.934,0,0,1,.046,10.878c-.219,6.863,0,13.741.057,20.612.04,4.834.105,9.668.168,14.5.01.758.108,1.515.1,2.272-.058,4.905-.166,9.809-.186,14.714a51.416,51.416,0,0,0,.284,5.618c.5,4.69.9,9.356-.033,14.058a28.717,28.717,0,0,0-.131,4.767c-.059,2.193-.148,4.385-.2,6.578-.025,1.032.008,2.065.015,3.1.038,5.83.149,11.66.086,17.489-.038,3.512-.4,7.018-.52,10.531-.1,3.095-1.087,4.143-4.187,4.292-2.034.1-4.062.373-6.095.409-2.194.039-4.39-.122-6.586-.169-1.352-.028-2.706.009-4.058-.006-4.51-.051-9.018-.129-13.528-.163-1.8-.013-3.594.1-5.39.089-1.755-.015-3.508-.169-5.263-.182-4.392-.032-8.785,0-13.177-.032-1.6-.009-3.191-.116-4.787-.157-3.874-.1-7.75-.179-11.624-.29-1.157-.034-2.317-.1-3.466-.24A2.91,2.91,0,0,1,1.03,158.07c-.01-.956.114-1.914.129-2.872.032-2,.035-3.993.044-5.99.008-1.953.031-3.907,0-5.86-.035-2.555-.153-5.11-.163-7.665-.02-5.033-.069-10.068.039-15.1A123.773,123.773,0,0,0,.711,104.9c-.141-1.337.143-2.712.133-4.069C.823,98.2.729,95.572.672,92.941c-.035-1.6-.068-3.2-.084-4.794C.57,86.317.539,84.485.573,82.655c.076-3.988.249-7.975.27-11.963a123.6,123.6,0,0,0-.208-12.8A125.479,125.479,0,0,1,.4,39.569a9.97,9.97,0,0,0-.062-2.145c-.816-4.71.126-9.409.048-14.113C.32,19.439.267,15.565.255,11.692c-.009-2.836,0-5.675.107-8.508A2.874,2.874,0,0,1,3.178.429C4.171.351,5.183.532,6.183.532Z"/>
</svg>
