<svg xmlns="http://www.w3.org/2000/svg" width="162.308" height="83.232" viewBox="0 0 162.308 83.232" preserveAspectRatio="none">
  <title>mask-s-horizontal</title>
    <path d="M.532,77.049C.31,72.989.163,68.922.007,64.859c-.053-1.388.2-2.786.255-4.182Q.391,57.338.436,54c.039-3.238.038-6.476.054-9.715,0-.556.019-1.113,0-1.669-.236-7.063-.9-14.137-.044-21.185a42.456,42.456,0,0,0,.076-7.62A85.033,85.033,0,0,1,.741,3.868,2.846,2.846,0,0,1,3.9,1.088c3.232-.034,6.464,0,9.7-.031C15.866,1.031,18.14.9,20.416.876c1.514-.014,3.03.116,4.546.134A75.216,75.216,0,0,0,32.486,1,89.729,89.729,0,0,1,43.364.951c6.863.219,13.741,0,20.612-.058,4.834-.039,9.668-.1,14.5-.168.758-.01,1.515-.108,2.272-.1,4.905.057,9.809.165,14.714.185a51.168,51.168,0,0,0,5.618-.284c4.69-.5,9.356-.9,14.058.034a28.935,28.935,0,0,0,4.767.131c2.193.058,4.385.148,6.578.2,1.032.024,2.065-.009,3.1-.015,5.83-.038,11.66-.15,17.489-.087,3.512.039,7.018.4,10.531.521,3.095.1,4.143,1.087,4.292,4.186.1,2.034.373,4.062.409,6.1.039,2.193-.122,4.39-.169,6.585-.028,1.353.009,2.706-.006,4.059-.051,4.509-.129,9.018-.163,13.527-.013,1.8.1,3.594.089,5.39-.015,1.755-.169,3.508-.182,5.263-.032,4.392,0,8.785-.032,13.177-.009,1.6-.116,3.191-.157,4.787-.1,3.875-.179,7.75-.29,11.624-.034,1.157-.1,2.317-.24,3.466A2.91,2.91,0,0,1,158.07,82.2c-.956.01-1.914-.114-2.872-.129-2-.032-3.993-.035-5.99-.043-1.953-.008-3.907-.032-5.86,0-2.555.035-5.11.153-7.665.163-5.033.021-10.068.069-15.1-.038a123.773,123.773,0,0,0-15.68.371c-1.337.141-2.712-.143-4.069-.132-2.631.02-5.262.114-7.893.172-1.6.034-3.2.068-4.794.083-1.83.018-3.662.049-5.492.015-3.988-.075-7.975-.249-11.963-.27a123.326,123.326,0,0,0-12.8.209,125.619,125.619,0,0,1-18.319.238,10.035,10.035,0,0,0-2.145.061c-4.71.816-9.409-.125-14.113-.048-3.872.063-7.746.116-11.619.128-2.836.01-5.675,0-8.508-.106A2.874,2.874,0,0,1,.429,80.055C.351,79.061.532,78.049.532,77.049Z"/>
</svg>
