<svg xmlns="http://www.w3.org/2000/svg" width="652.399" height="332.845" viewBox="0 0 652.399 332.845" preserveAspectRatio="none">
  <title>mask-m-horizontal</title>
  <path d="M649.757,235.448a56.162,56.162,0,0,1-.518,7.362,67.6,67.6,0,0,0-.9,7.3c-.055,2.44-.037,4.88-.073,7.321s-.1,4.879-.121,7.319-.416,4.878-.435,7.319.088,4.881.068,7.321c-.01,1.3.107,3.733.224,6.821.076,2.027.606,4.325.7,6.8.079,2.177-.364,4.494-.3,6.829.063,2.266.05,4.564.08,6.817.032,2.356.3,4.657.273,6.82-.032,2.51.129,4.846-.015,6.833-.249,3.42-.785,5.969-1.514,6.7-1.449,1.45-3.613,1.874-5.882,2.359a31.1,31.1,0,0,1-6.318,1.122c-2.112.02-4.305-.031-6.436-.107-2.238-.08-4.416-.52-6.41-.431-2.365.105-4.767.221-7.19.318-2.385.1-4.795-.006-7.205.063s-4.8.393-7.2.415c-2.418.023-4.83.3-7.209.251-2.433-.044-4.815-.723-7.175-.858-2.428-.138-4.92.267-7.423.21-2.441-.057-4.908-.053-7.4-.05-2.45,0-4.925-.306-7.41-.261-2.458.044-4.933-.009-7.41.06s-4.923.613-7.391.69-4.961-.386-7.422-.314c-2.482.073-4.94.654-7.393.7-2.491.052-4.968-.338-7.412-.326-2.5.012-4.974.393-7.407.347-2.357-.044-4.708-.481-7.064-.509s-4.715-.061-7.072-.075-4.715.077-7.071.075-4.715-.16-7.071-.151-4.712.385-7.068.4-4.716-.138-7.072-.112-4.709.361-7.065.393-4.711.214-7.067.25-4.719-.326-7.075-.287l-7.069.119c-2.356.039-4.716-.131-7.072-.092s-4.7.5-7.061.538-4.712.117-7.068.149-4.713.019-7.069.045-4.712.184-7.068.2-4.715-.442-7.072-.432-4.711.192-7.068.19-4.712.029-7.069.014c-2.423-.014-4.847.134-7.269.12s-4.846.055-7.268.04-4.846-.076-7.268-.09-4.845-.107-7.267-.12-4.844-.222-7.266-.235-4.848.126-7.271.114-4.847.074-7.269.062-4.846-.276-7.268-.288-4.845-.234-7.267-.246-4.848.378-7.27.367-4.844-.2-7.266-.209-4.845-.017-7.267-.026l-7.266-.029c-2.423-.008-4.845.032-7.266.024s-4.845.259-7.266.252-4.844.01-7.266,0-4.843,0-7.264-.009-4.843-.257-7.264-.262-4.843-.246-7.265-.25-4.843.309-7.265.306-4.842.071-7.264.069-4.842-.437-7.263-.439-4.842.443-7.264.443-4.842.071-7.263.072-4.842-.4-7.263-.4-4.841.412-7.262.415-4.843-.607-7.264-.6-4.842.3-7.263.3-4.843-.253-7.264-.247-4.839.5-7.26.5-4.841.132-7.262.141-4.842.012-7.263.022-4.845-.482-7.266-.47-4.841.274-7.262.287-4.844-.1-7.266-.085-4.846-.163-7.269-.147c-2.509.016-5.014.34-7.518.309s-5.019.121-7.522.058-5.008-.329-7.511-.408-5-.351-7.508-.429-5.015-.038-7.519-.1-5.01-.219-7.515-.246-5.015-.184-7.521-.161-5.016.081-7.522.172-5.008.272-7.511.446c-2.267.157-4.522.281-6.775.4s-4.52.238-6.78.317-4.516.246-6.783.3-4.514.269-6.786.305c-1.533.024-4-.236-6.92-.126-2.12.081-4.476.211-6.906.247-2.3.035-4.66.522-6.928.451a64.7,64.7,0,0,1-6.9-.75c-2.991-.409-5.234-1.227-6.371-2.278-.9-.829-1.209-3.089-1.42-5.9-.151-2-.543-4.218-.523-6.281.026-2.664.264-5.045.29-6.294.052-2.393.176-4.847.333-7.345.152-2.41.456-4.851.65-7.323.189-2.429.23-4.891.406-7.344s.163-4.909.272-7.347c.107-2.417.137-4.835.137-7.268s-.157-4.837-.233-7.267.164-4.858.041-7.284.006-4.863-.133-7.284-.358-4.844-.484-7.262-.325-4.848-.408-7.263c-.083-2.436-.392-4.858-.4-7.272-.008-2.439.212-4.863.312-7.272.1-2.437.1-4.871.342-7.271.25-2.449.333-4.932.509-7.43.174-2.461.808-4.915.919-7.413.11-2.469-.337-4.971-.278-7.466q.087-3.714.119-7.448c.018-2.481.046-4.964.032-7.45s-.039-4.97-.074-7.451-.164-4.976-.211-7.453c-.047-2.5.514-4.993.464-7.462-.05-2.5-.654-4.976-.7-7.439-.047-2.694-.254-5.27-.455-7.794-.212-2.667.055-5.285-.021-7.836-.079-2.627-.477-5.249-.072-7.836.341-2.182,1.1-4.347,1.218-6.595.116-2.209-.149-4.457-.174-6.7-.024-2.224-.05-4.46-.14-6.691s-.534-4.453-.619-6.668c-.087-2.25.091-4.494.085-6.7-.006-2.436-.172-4.867-.165-7.292s-.057-4.864-.042-7.29.481-4.861.5-7.29-.091-4.861-.073-7.29.066-4.857.078-7.286-.253-4.857-.251-7.288.135-4.853.122-7.285-.054-4.853-.086-7.286.172-4.857.116-7.291c-.044-1.875-.48-4.157-.665-6.6-.163-2.15-.23-4.422-.253-6.621a32.785,32.785,0,0,1,.277-6.637A8.164,8.164,0,0,1,4.829,1.887C6.456.834,9.58.955,12.905,1.22c3.191.255,6.458.6,8.355.605,2.555,0,5.11-.317,7.665-.314s5.11.3,7.665.307,5.11-.279,7.665-.269c2.458.009,4.921.283,7.391.276s4.921-.242,7.389-.261,4.925-.082,7.392-.106,4.927-.085,7.394-.108,4.929.02,7.394,0,4.931.1,7.395.1,4.933-.139,7.395-.126,4.93.261,7.391.3,4.933.076,7.392.142,4.944-.166,7.4-.065,4.91.635,7.363.78c2.577.151,5.167.1,7.749.142s5.165.13,7.748.1,5.162-.1,7.744-.155,5.161-.107,7.742-.153,5.159,0,7.74.013q3.544.012,7.146.133c2.375.078,4.773-.1,7.16,0s4.778.144,7.152.23c2.4.088,4.784.364,7.145.388,2.417.026,4.795-.368,7.141-.457,2.33-.088,4.664-.1,6.992-.164s4.668.25,7,.208,4.659-.03,6.99-.057,4.658-.06,6.988-.074,4.657-.219,6.988-.226,4.655.214,6.985.21,4.657.026,6.989.019,4.66-.127,7-.139,4.661.078,7,.055c2.43-.023,4.861.038,7.286-.009s4.852-.316,7.277-.383,4.855-.119,7.28-.2,4.844-.38,7.269-.469,4.847-.277,7.272-.37,4.846-.279,7.272-.369,4.85-.166,7.276-.249,4.866.338,7.292.268S326.008.551,328.436.5s4.845-.468,7.273-.5,4.854.214,7.283.214a61,61,0,0,1,8.68.554c4.038.58,6.6,1.23,8.581,1.131,2.215-.11,4.44-.258,6.668-.295s4.443.183,6.669.194,4.447-.268,6.67-.235,4.438.474,6.659.5,4.447.044,6.665.046,4.444-.274,6.66-.326c2.329-.055,4.694-.111,7.056-.043,2.343.068,4.7.13,7.048.252s4.709.251,7.039.361c2.375.112,4.715.337,7.027.365,2.4.028,4.763.432,7.055.292,2.49-.153,4.96-.794,7.46-.886s5-.2,7.5-.25,5,.008,7.5-.026,4.993-.165,7.492-.2,5,.2,7.5.135,4.981-.253,7.468-.284,4.982-.064,7.47-.075,4.978.081,7.468.078,4.976-.16,7.469-.167,4.973-.046,7.469-.07c2.394-.022,4.78.418,7.165.5s4.762.379,7.148.5,4.773.2,7.162.317a66.41,66.41,0,0,0,6.744-.171c2.23-.13,4.492-.717,6.7-.766a33.081,33.081,0,0,1,6.718.495,86.685,86.685,0,0,0,9.076.934,32.449,32.449,0,0,0,6.657.134c2.221-.266,4.366-1.116,6.537-1.414,2.207-.3,4.536-.076,6.865-.2,2.25-.119,4.535-.457,6.843-.459,2.277,0,4.567.252,6.849.316,2.3.065,4.586.321,6.84.405,2.332.087,4.639-.351,6.861-.3q3.058.073,6.116.15c2.039.05,4.075.218,6.114.269s4.071.335,6.11.385c1.58.039,4.216-.349,7.136-.558,2.337-.166,4.861-.415,7.155-.419,3.018,0,5.671.425,7.01,1.276,1.668,1.058,2.56,3.1,3.193,5.6a30.857,30.857,0,0,1,.925,6.532c.07,2.146.313,4.415.189,6.643-.128,2.278-.382,4.535-.574,6.618-.233,2.537-.785,4.8-.882,6.577-.131,2.413.086,4.848-.006,7.274s-.148,4.836-.206,7.263-.49,4.834-.518,7.261.295,4.846.29,7.272-.3,4.845-.287,7.269-.17,4.849-.143,7.272.45,4.843.485,7.265.053,4.848.091,7.269-.14,4.855-.105,7.276.435,4.844.464,7.262-.074,4.851-.058,7.268c.016,2.355.12,4.708.13,7.061s-.126,4.709-.121,7.061.243,4.708.242,7.061-.562,4.707-.568,7.06.257,4.708.246,7.062-.016,4.706-.033,7.06-.321,4.7-.343,7.057.112,4.707.084,7.06-.185,4.705-.218,7.058.05,4.707.011,7.061c-.042,2.607-.073,5.084-.3,7.517-.233,2.509-.528,4.972-.74,7.489-.2,2.425-.475,4.9-.458,7.514.015,2.517.2,4.791.3,6.941.113,2.406.538,4.645.656,6.916.117,2.239-.032,4.507-.013,6.944C649.813,230.646,649.888,232.924,649.757,235.448Z"/>
</svg>
