<svg xmlns="http://www.w3.org/2000/svg" width="332.235" height="332.436" viewBox="0 0 332.235 332.436" preserveAspectRatio="none">
  <title>mask-m-square</title>
  <path d="M329.054,265.537c0,1.089.011,4.441-.039,8.375-.034,2.7.035,5.673,0,8.378-.053,3.863-.615,7.172-.632,8.362-.029,2.157.305,4.32.277,6.477s-.163,4.314-.189,6.472-.257,4.313-.282,6.47c-.022,1.913.327,4.513.35,7.053a25.065,25.065,0,0,1-.781,6.941,8.139,8.139,0,0,1-4.08,4.855,22.531,22.531,0,0,1-6.149,2.44,53.363,53.363,0,0,1-6.567.956c-2.167.192-4.421-.01-6.629.038-2.261.049-4.492-.143-6.61-.169-2.4-.029-4.651.27-6.608.25a37.945,37.945,0,0,1-6.449-.4,52.382,52.382,0,0,0-7.2-1.032c-2.334-.109-4.8-.013-7.291.015-2.43.028-4.9-.213-7.3-.124-2.526.094-4.975.632-7.275.714-2.713.1-5.207-.027-7.3-.066-2.462-.046-4.944-.368-7.448-.416-2.47-.047-4.969.466-7.467.422-2.479-.044-4.96-.581-7.454-.618s-4.98.4-7.468.375-4.978-.216-7.46-.228c-2.5-.012-4.985.054-7.461.061-2.449.006-4.9-.039-7.347-.032s-4.9.089-7.345.1-4.9-.2-7.345-.2-4.9-.079-7.344-.078-4.9-.082-7.343-.086-4.9.3-7.345.287-4.893-.417-7.341-.432-4.9.259-7.346.237-4.9-.027-7.343-.057-4.893-.209-7.342-.247-4.893-.129-7.342-.177c-2.549-.049-5.1-.053-7.639-.043s-5.085.471-7.628.513-5.086.128-7.631.172-5.092-.34-7.639-.323-5.079-.175-7.629-.214-5.12.207-7.683.236-5.119-.042-7.679.009-5.117.138-7.675.165-5.127.488-7.683.444-5.109-.537-7.66-.7-5.13-.155-7.668-.482a56.834,56.834,0,0,0-8.058-.719c-2.684.041-5.361.03-8.1.171-2.6.135-5.25.737-8.071.686-2.584-.046-4.815.172-6.742.037a6.91,6.91,0,0,1-5.816-3.165C.818,325.809.379,322.971.118,319.7c-.188-2.355.179-5.01.188-7.674.01-2.625-.054-5.265.022-7.667.1-3.175.357-5.94.324-7.675-.042-2.225-.047-4.418-.035-6.6C.63,287.87.563,285.672.6,283.48s-.254-4.411-.216-6.61.062-4.393.068-6.6c.005-2.188.164-4.387.109-6.605-.054-2.178.125-4.392-.015-6.616-.156-2.475-.344-4.936-.393-7.412s0-4.949.028-7.428-.241-4.958-.172-7.436.176-4.951.255-7.428.083-4.954.142-7.43-.066-4.952-.062-7.429c.005-2.324.309-4.645.32-6.967s.044-4.644.06-6.966.2-4.642.215-6.964.053-4.644.075-6.966-.448-4.648-.425-6.97.256-4.641.279-6.962.344-4.64.366-6.961.092-4.643.11-6.964-.077-4.644-.063-6.965-.425-4.645-.416-6.967.357-4.641.358-6.963-.065-4.642-.072-6.964.257-4.645.24-6.967-.157-4.642-.185-6.964c-.028-2.3-.337-4.6-.346-6.905s.064-4.6.072-6.907.274-4.6.294-6.905-.084-4.6-.053-6.907.147-4.6.184-6.9.173-4.6.213-6.9-.1-4.6-.056-6.906-.19-4.606-.151-6.908.588-4.595.622-6.9-.567-4.613-.542-6.917.678-4.6.692-6.9c.018-2.995-.588-5.952-.714-8.926-.126-2.952.1-5.93-.033-8.942C1.319,19.555.929,16.31.905,13.091.882,9.843,1.012,6.6,1.967,5.163,3.045,3.54,5.389,2.621,8.357,1.879A45.72,45.72,0,0,1,15.606.962C17.951.78,20.415.4,22.93.391,25.4.384,27.888.38,30.291.471c2.6.1,5.074.605,7.326.738,2.985.178,5.569-.192,7.367-.128,2.414.086,4.821.4,7.239.473s4.83.187,7.248.244,4.836-.111,7.254-.067,4.826.539,7.244.571,4.838-.246,7.256-.226,4.833.147,7.251.158,4.834-.291,7.252-.29,4.834.133,7.252.126,4.833-.276,7.25-.29,4.839.538,7.256.517,4.835-.068,7.252-.1,4.834-.146,7.251-.177,4.832-.237,7.25-.272,4.832-.2,7.249-.237,4.844.378,7.261.339,4.832-.356,7.25-.4,4.831-.377,7.248-.418,4.842.211,7.258.172S180.336.8,182.753.766s4.841.242,7.257.207,4.839.213,7.254.182,4.828-.646,7.243-.673,4.839.467,7.254.445S216.6,1,219.012.984s4.832-.426,7.246-.434,4.84.183,7.254.183A59.862,59.862,0,0,1,240.92,0c2.417.03,4.907.591,7.409.731s5,.233,7.416.356c2.595.131,5.106.359,7.421.32,2.619-.044,5.344-.1,8.09-.1,2.71,0,5.438-.395,8.1-.39,2.808.006,5.538.173,8.094.143,2.142-.026,4.4-.091,6.706-.105,2.2-.013,4.452.292,6.715.271,2.241-.021,4.493-.08,6.713-.126,1.767-.038,4.7-.671,7.951-.76a78.182,78.182,0,0,1,7.992.169c3.334.263,6.335.96,7.678,2.235.8.76.793,3.4.773,6.355-.014,2.028-.3,4.271-.432,6.363a57.059,57.059,0,0,0,.194,6.377c.027,2.231-.372,4.6-.28,7.017.088,2.3.391,4.65.44,7,.049,2.364-.088,4.718-.176,7.006A56.3,56.3,0,0,1,331,49.8c-.513,3.139.52,3.266.3,6.36-.156,2.216-.555,7.037-.253,9.073.35,2.356.533,4.76.723,7.207.185,2.381.222,4.791.285,7.235.062,2.4.124,4.81.1,7.245-.027,2.409-.078,4.826-.166,7.25s.351,4.864.228,7.275c-.123,2.429-.488,4.837-.62,7.236-.134,2.441-.555,4.845-.67,7.231-.119,2.455-.013,4.885-.081,7.258-.069,2.411-.47,4.814-.531,7.227s.356,4.834.305,7.247-.535,4.816-.576,7.229.447,4.831.417,7.244-.323,4.822-.341,7.235.071,4.825.065,7.238-.192,4.825-.185,7.239-.029,4.826-.009,7.239c.021,2.38.412,4.753.419,7.123s-.387,4.753-.394,7.125.232,4.753.211,7.125-.011,4.751-.048,7.124-.463,4.74-.515,7.115-.052,4.746-.119,7.121.05,4.749-.033,7.125c-.091,2.566.088,4.767.024,6.892-.068,2.25-.506,4.405-.7,6.855-.195,2.508-.007,4.779-.019,6.964-.012,2.329-.152,4.575-.083,6.947C328.8,260.747,329.029,263.007,329.054,265.537Z"/>
</svg>
